<svg xmlns="http://www.w3.org/2000/svg" xmlns:xlink="http://www.w3.org/1999/xlink" version="1.2" viewBox="0 0 30 30">

  <defs>
    <g id="ly-barline">
      <rect x="0.0000" y="-2.0000" width="0.1900" height="4.0000" ry="0.0000" />
    </g>


    <g id="ly-notehead-crotchet">
      <path transform="scale(0.0040, -0.0040)"
        d="M218 136c66 0 108 -36 108 -89c0 -89 -113 -183 -218 -183c-66 0 -108 36 -108 89c0 89 113 183 218 183z" />
    </g>

    <g id="ly-stem">
      <rect x="-0.0650" y="-1.2410" width="0.1300" height="3.2410" ry="0.0400" />
    </g>

    <g id="ly-notehead-minim">
      <path transform="scale(0.0040, -0.0040)" d="M314 65c0 23 -19 41 -42 41c-39 0 -204 -110 -231 -143c-7 -8 -10 -18 -10 -28c0 -23 19 -41 42 -41c39 0 203 110 230 143c7 8 11 18 11 28zM262 136c41 0 82 -14 82 -71c0 -26 -16 -112 -74 -151c-25 -17 -87 -50 -187 -50c-41 0 -83 14 -83 71c0 26 16 112 74 151
c25 17 88 50 188 50z" />
    </g>

    <g id="ly-notehead-semibreve">
      <path transform="scale(0.0040, -0.0040)"
        d="M213 112c-45 0 -69 -34 -69 -88c0 -102 89 -136 134 -136s69 34 69 88c0 102 -89 136 -134 136zM245 136c144 0 246 -65 246 -136s-102 -136 -246 -136s-245 65 -245 136s101 136 245 136z" />
    </g>

    <g id="ly-rest-minim">
      <path transform="scale(0.0040, -0.0040)"
        d="M365 -156h-355c-6 0 -10 4 -10 10v136c0 6 4 10 10 10h355c6 0 10 -4 10 -10v-136c0 -6 -4 -10 -10 -10z" />
    </g>

    <g id="ly-rest-semibreve">
      <path transform="scale(0.0040, -0.0040)"
        d="M365 0h-355c-6 0 -10 4 -10 10v136c0 6 4 10 10 10h355c6 0 10 -4 10 -10v-136c0 -6 -4 -10 -10 -10z" />
    </g>


    <g id="ly-rest-crotchet">
      <path transform="scale(0.0040, -0.0040)"
        d="M-6 78c0 59 124 83 124 182c0 24 -8 49 -25 69l-35 42c-3 3 -4 7 -4 10c0 9 9 15 17 15c4 0 8 -1 11 -5l151 -180c7 -9 10 -17 10 -25c0 -59 -124 -83 -124 -182c0 -24 7 -49 24 -69l84 -99c3 -3 4 -7 4 -10c0 -9 -8 -16 -16 -16s-45 44 -109 44c-16 0 -53 0 -53 -67
c0 -35 11 -74 28 -94c7 -8 -5 -19 -12 -11c-45 54 -92 148 -92 202c0 41 27 42 40 42c33 0 78 -13 119 -31l-132 158c-7 9 -10 17 -10 25z" />
    </g>

    <g id="ly-quavertwiddle-down">
      <path transform="scale(0.0040, -0.0040)"
        d="M0 0h-16v250h16v-250zM0 0v250c97 59 224 148 224 259c0 57 -15 112 -40 163c-3 16 10 27 23 27c7 0 15 -3 20 -11c25 -56 40 -117 40 -179c0 -203 -267 -306 -267 -509z" />
    </g>

    <g id="ly-quavertwiddle-up">
      <path transform="scale(0.0040, -0.0040)"
        d="M0 0v-250h-16v250h16zM0 0c0 -197 207 -336 207 -533c0 -71 -15 -141 -41 -207c-5 -8 -13 -12 -20 -12c-13 0 -26 11 -23 27c26 61 42 126 42 192c0 103 -94 208 -165 283v250z" />
    </g>

    <g id="ly-staffline">
      <line stroke-linejoin="round" stroke-linecap="round" stroke-width="0.1000" x1="0.0500" y1="0" x2="2493.7406"
        y2="0" stroke="gray" />
    </g>

    <g id="ly-clef-bass">
      <path transform="scale(0.0040, -0.0040)"
        d="M557 -125c0 28 23 51 51 51s51 -23 51 -51s-23 -51 -51 -51s-51 23 -51 51zM557 125c0 28 23 51 51 51s51 -23 51 -51s-23 -51 -51 -51s-51 23 -51 51zM232 263c172 0 293 -88 293 -251c0 -263 -263 -414 -516 -521c-3 -3 -6 -4 -9 -4c-7 0 -13 6 -13 13c0 3 1 6 4 9
c202 118 412 265 412 493c0 120 -63 235 -171 235c-74 0 -129 -54 -154 -126c11 5 22 8 34 8c55 0 100 -45 100 -100c0 -58 -44 -106 -100 -106c-60 0 -112 47 -112 106c0 133 102 244 232 244z" />
    </g>

    <g id="ly-clef-treble">
      <path transform="scale(0.0040, -0.0040)"
        d="M266 -635h-6c-108 0 -195 88 -195 197c0 58 53 103 112 103c54 0 95 -47 95 -103c0 -52 -43 -95 -95 -95c-11 0 -21 2 -31 6c26 -39 68 -65 117 -65h4zM461 -203c68 24 113 90 113 164c0 90 -66 179 -173 190c19 -89 48 -242 60 -354zM74 28c0 -145 141 -247 264 -247
c1 0 47 0 82 6c-7 64 -29 203 -63 364c-79 -8 -124 -61 -124 -119c0 -44 25 -91 81 -123c5 -5 7 -10 7 -15c0 -11 -10 -22 -22 -22c-15 0 -126 62 -126 187c0 88 58 174 160 197c-14 58 -29 117 -46 175c-107 -121 -213 -243 -213 -403zM250 553c-29 96 -52 170 -52 346
c0 115 55 224 149 292c6 5 14 5 20 0c68 -80 133 -245 133 -358c0 -143 -86 -255 -180 -364c21 -68 39 -138 56 -207c2 0 7 1 13 1c155 0 256 -128 256 -261c0 -113 -74 -212 -180 -246c3 -35 5 -70 5 -105c0 -19 -1 -39 -2 -58c-7 -119 -88 -225 -202 -228l1 43
c93 2 153 92 159 191c1 18 2 37 2 55c0 31 -1 61 -4 92c-5 -1 -44 -8 -89 -8c-193 0 -333 180 -333 374c0 177 131 306 248 441zM428 916c0 34 1 66 -20 129c-99 -48 -162 -149 -162 -259c0 -52 12 -115 36 -194c80 97 146 198 146 324z" />
    </g>

    <g id="ly-timesignature-4">
      <path transform="scale(0.0040, -0.0040)"
        d="M196 117h117c0 -48 27 -94 72 -94c8 0 12 -5 12 -11s-4 -12 -12 -12c-44 0 -87 13 -131 13s-87 -13 -131 -13c-8 0 -12 6 -12 12s4 11 12 11c45 0 73 46 73 94zM-2 148c0 12 140 143 140 336c0 10 7 19 16 16c23 -7 47 -13 71 -13s48 6 71 13c14 4 23 -9 17 -16
l-284 -330h167v131c0 34 34 27 68 72c22 30 23 56 36 56c6 0 13 -5 13 -14v-245h72c10 0 15 -7 15 -14s-5 -15 -15 -15h-72v-8h-117v8h-167c-23 0 -31 14 -31 23z" />
    </g>

    <g id="ly-timesignature-2">
      <path transform="scale(0.0040, -0.0040)"
        d="M229 0c-88 0 -90 66 -144 66c-30 0 -59 -20 -62 -55c-1 -7 -6 -11 -11 -11c-6 0 -12 4 -12 11c0 154 232 170 232 344c0 59 -16 122 -67 122c-25 0 -49 -14 -49 -37c0 -27 35 -41 35 -68c0 -38 -31 -69 -69 -69s-69 31 -69 69c0 76 72 128 152 128c95 0 183 -57 183 -145
c0 -151 -150 -159 -246 -220c9 2 18 3 27 3c83 0 111 -59 171 -59c48 0 38 38 55 38c6 0 12 -5 12 -12c0 -22 -44 -105 -138 -105z" />
    </g>

    <g id="ly-notehead-dot">
      <path transform="scale(0.0040, -0.0040)" d="M0 0c0 31 25 56 56 56s56 -25 56 -56s-25 -56 -56 -56s-56 25 -56 56z" />
    </g>

    <g id="ly-rest-bar">
      <path transform="scale(0.0040, -0.0040)"
        d="M140 0h-130c-6 0 -10 4 -10 10v230c0 6 4 10 10 10h130c6 0 10 -4 10 -10v-230c0 -6 -4 -10 -10 -10z" />
    </g>

    <g id="ly-leger-small">
      <rect x="-0.3" y="-0.1000" width="1.9563" height="0.2000" ry="0.1000" />
    </g>

    <g id="ly-leger-big">
      <rect x="-0.3" y="-0.1000" width="2.0660" height="0.2000" ry="0.1000" />
    </g>

    <g id="ly-minim-down">
      <use href="#ly-notehead-minim" />
      <g transform="translate(0.05,1.5)">
        <use href="#ly-stem" />
      </g>
    </g>

    <g id="ly-minim-up">
      <use href="#ly-notehead-minim" />
      <g transform="translate(1.3,-2.3)">
        <use href="#ly-stem" />
      </g>
    </g>

    <g id="ly-crotchet-down">
      <use href="#ly-notehead-crotchet" />
      <g transform="translate(0.05,1.4)">
        <use href="#ly-stem" />
      </g>
    </g>

    <g id="ly-crotchet-up">
      <use href="#ly-notehead-crotchet" />
      <g transform="translate(1.25,-2.2)">
        <use href="#ly-stem" />
      </g>
    </g>

    <g id="ly-quaver-down">
      <use href="#ly-crotchet-down" />
      <g transform="translate(0.05,3.7)">
        <use href="#ly-quavertwiddle-down" />
      </g>
    </g>

    <g id="ly-quaver-up">
      <use href="#ly-crotchet-up" />
      <g transform="translate(1.25,-3.8)">
        <use href="#ly-quavertwiddle-up" />
      </g>
    </g>


  </defs>

  <use href="#ly-staffline" x="0" y="2" />
  <use href="#ly-staffline" x="0" y="3" />
  <use href="#ly-staffline" x="0" y="4" />
  <use href="#ly-staffline" x="0" y="5" />
  <use href="#ly-staffline" x="0" y="6" />

  <use href="#ly-clef-treble" x="1" y="5" />

  <use href="#ly-timesignature-4" x="5" y="4" />
  <use href="#ly-timesignature-2" x="5" y="6" />

  <use href="#ly-leger-small" x="9" y="7" />
  <use href="#ly-crotchet-up" x="9" y="7.5" />
  <use href="#ly-notehead-dot" x="10.7" y="7.5" />

  <use href="#ly-leger-big" x="12" y="1" />
  <use href="#ly-minim-down" x="12" y="1" />
  <use href="#ly-notehead-dot" x="13.8" y="0.5" />
  <use href="#ly-minim-up" x="12" y="6" />

  <use href="#ly-barline" x="15" y="4" />


  <use href="#ly-notehead-semibreve" x="17" y="5" />
  <use href="#ly-rest-bar" x="20" y="4" />
  <use href="#ly-rest-semibreve" x="24" y="4" />
  <use href="#ly-rest-minim" x="27" y="4" />


  <use href="#ly-staffline" x="0" y="12" />
  <use href="#ly-staffline" x="0" y="13" />
  <use href="#ly-staffline" x="0" y="14" />
  <use href="#ly-staffline" x="0" y="15" />
  <use href="#ly-staffline" x="0" y="16" />

  <use href="#ly-clef-bass" x="1" y="13" />

  <use href="#ly-timesignature-4" x="5" y="14" />
  <use href="#ly-timesignature-2" x="5" y="16" />


  <use href="#ly-rest-minim" x="9" y="13" />
  <use href="#ly-rest-crotchet" x="13" y="14" />


  <use href="#ly-quaver-up" x="15" y="16" />

  <use href="#ly-quaver-down" x="18" y="12.5" />

  <use href="#ly-crotchet-down" x="22" y="12" />
  <use href="#ly-quaver-down" x="25" y="12" />
  <use href="#ly-quaver-up" x="28" y="15" />



</svg>